<svg version="1.1" xmlns="http://www.w3.org/2000/svg" xmlns:xlink="http://www.w3.org/1999/xlink" viewBox="0 0 172 172"><defs><linearGradient x1="76.59375" y1="50.9765" x2="76.59375" y2="55.48075" gradientUnits="userSpaceOnUse" id="color-1"><stop offset="0" stop-color="#8ab4ff"></stop><stop offset="1" stop-color="#e492ff"></stop></linearGradient><linearGradient x1="87.34375" y1="112.99056" x2="87.34375" y2="118.13713" gradientUnits="userSpaceOnUse" id="color-2"><stop offset="0" stop-color="#8ab4ff"></stop><stop offset="1" stop-color="#e492ff"></stop></linearGradient><linearGradient x1="37.625" y1="17.43919" x2="37.625" y2="153.73037" gradientUnits="userSpaceOnUse" id="color-3"><stop offset="0" stop-color="#1a6dff"></stop><stop offset="1" stop-color="#c822ff"></stop></linearGradient><linearGradient x1="45.9885" y1="17.43919" x2="45.9885" y2="153.73037" gradientUnits="userSpaceOnUse" id="color-4"><stop offset="0" stop-color="#1a6dff"></stop><stop offset="1" stop-color="#c822ff"></stop></linearGradient><linearGradient x1="108.84375" y1="17.43919" x2="108.84375" y2="153.73037" gradientUnits="userSpaceOnUse" id="color-5"><stop offset="0" stop-color="#1a6dff"></stop><stop offset="1" stop-color="#c822ff"></stop></linearGradient><linearGradient x1="86" y1="17.43919" x2="86" y2="153.73037" gradientUnits="userSpaceOnUse" id="color-6"><stop offset="0" stop-color="#1a6dff"></stop><stop offset="1" stop-color="#c822ff"></stop></linearGradient></defs><g fill="none" fill-rule="nonzero" stroke="none" stroke-width="1" stroke-linecap="butt" stroke-linejoin="miter" stroke-miterlimit="10" stroke-dasharray="" stroke-dashoffset="0" font-family="none" font-weight="none" font-size="none" text-anchor="none" style="mix-blend-mode: normal"><path d="M0,172v-172h172v172z" fill="none"></path><g><rect x="25" y="19" transform="scale(2.6875,2.6875)" width="7" height="2" fill="url(#color-1)"></rect><rect x="20" y="41" transform="scale(2.6875,2.6875)" width="25" height="4" fill="url(#color-2)"></rect><g><rect x="10" y="21" transform="scale(2.6875,2.6875)" width="8" height="2" fill="url(#color-3)"></rect><path d="M52.89537,47.7515l-10.01094,-10.01094l-3.80013,3.80013l10.01094,10.01094z" fill="url(#color-4)"></path><path d="M69.36169,61.8125h14.46681c4.16025,0 7.5465,-3.38625 7.5465,-7.54919v-5.88831h55.09375c5.18687,0 9.40625,-4.21937 9.40625,-9.40625c0,-5.18688 -4.21938,-9.40625 -9.40625,-9.40625h-55.09375v-8.0625c0,-2.96431 -2.41069,-5.375 -5.375,-5.375c-13.33806,0 -24.1875,10.84944 -24.1875,24.1875v13.95081c0,4.16294 3.38625,7.54919 7.54919,7.54919zM102.125,34.9375h44.34375c2.22256,0 4.03125,1.80869 4.03125,4.03125c0,2.22256 -1.80869,4.03125 -4.03125,4.03125h-44.34375zM91.375,34.9375h5.375v8.0625h-5.375zM67.1875,40.3125c0,-10.37106 8.44144,-18.8125 18.8125,-18.8125v8.0625v16.48244c-0.69338,-0.20962 -1.41362,-0.35744 -2.17419,-0.35744h-14.46681c-0.76056,0 -1.48081,0.14781 -2.17419,0.35744v-5.73244zM67.1875,53.75v-0.51331c0,-1.20131 0.97288,-2.17419 2.17419,-2.17419h14.46681c1.19862,0 2.1715,0.97287 2.1715,2.17419v0.51331v0.51331c0,1.20131 -0.97288,2.17419 -2.17419,2.17419h-14.46681c-1.19862,0 -2.1715,-0.97287 -2.1715,-2.17419z" fill="url(#color-5)"></path><path d="M150.5,67.1875h-107.5c-1.48619,0 -2.6875,1.20131 -2.6875,2.6875v2.6875h-16.125c-2.96431,0 -5.375,2.41069 -5.375,5.375c0,12.42969 9.42506,22.68788 21.5,24.02894v2.84606c0,4.44512 3.61738,8.0625 8.0625,8.0625v2.6875c0,3.41313 2.13925,6.321 5.14388,7.49544c0.44612,0.33325 0.97287,0.56706 1.57487,0.56706c1.85975,0 3.59319,0.74175 4.87244,2.09356c1.28194,1.34913 1.935,3.12288 1.83556,4.988c-0.18275,3.5045 -3.43194,6.35594 -7.24012,6.35594h-3.49912c-8.89294,0 -16.125,7.23206 -16.125,16.125c0,1.48619 1.20131,2.6875 2.6875,2.6875h96.75c1.48619,0 2.6875,-1.20131 2.6875,-2.6875c0,-8.89294 -7.23206,-16.125 -16.125,-16.125h-3.49912c-3.80819,0 -7.05738,-2.85144 -7.24013,-6.35056c-0.09944,-1.86781 0.55363,-3.64156 1.83556,-4.99069c1.27925,-1.3545 3.01269,-2.09625 4.87244,-2.09625c0.602,0 1.12875,-0.23381 1.57487,-0.56706c3.00194,-1.17444 5.14388,-4.08231 5.14388,-7.49544v-2.6875c4.44512,0 8.0625,-3.61738 8.0625,-8.0625v-13.4375c0,-1.4835 1.204,-2.6875 2.6875,-2.6875c10.37106,0 18.8125,-8.44144 18.8125,-18.8125c0,-1.48619 -1.20131,-2.6875 -2.6875,-2.6875zM40.3125,96.55919c-9.10525,-1.30881 -16.125,-9.159 -16.125,-18.62169h16.125zM117.43838,142.4375h3.49912c4.99875,0 9.21544,3.42925 10.40869,8.0625h-28.37194c-1.10994,-3.12556 -4.0635,-5.375 -7.568,-5.375h-18.8125c-3.5045,0 -6.45806,2.24944 -7.568,5.375h-28.37194c1.19325,-4.63325 5.40994,-8.0625 10.40869,-8.0625h3.49912c6.73219,0 12.27112,-5.02831 12.60975,-11.44875c0.13975,-2.65794 -0.56975,-5.20838 -2.01831,-7.36375h41.69388c-1.44856,2.15537 -2.15806,4.7085 -2.01831,7.36644c0.33862,6.41775 5.87756,11.44606 12.60975,11.44606zM118.25,115.5625c0,1.4835 -1.204,2.6875 -2.6875,2.6875h-59.125c-1.4835,0 -2.6875,-1.204 -2.6875,-2.6875v-2.6875h64.5zM134.375,83.3125c-4.44512,0 -8.0625,3.61738 -8.0625,8.0625v13.4375c0,1.4835 -1.204,2.6875 -2.6875,2.6875h-75.25c-1.4835,0 -2.6875,-1.204 -2.6875,-2.6875v-29.5625v-2.6875h5.375v10.75h5.375v-10.75h5.375v8.0625h5.375v-8.0625h5.375v5.375h5.375v-5.375h69.60356c-1.247,6.12481 -6.67575,10.75 -13.16606,10.75z" fill="url(#color-6)"></path></g></g></g></svg>