<svg version="1.1" xmlns="http://www.w3.org/2000/svg" xmlns:xlink="http://www.w3.org/1999/xlink" viewBox="0 0 172 172"><defs><linearGradient x1="110.1875" y1="65.90019" x2="110.1875" y2="84.01931" gradientUnits="userSpaceOnUse" id="color-1"><stop offset="0" stop-color="#8ab4ff"></stop><stop offset="1" stop-color="#e492ff"></stop></linearGradient><linearGradient x1="59.125" y1="99.72238" x2="59.125" y2="114.72131" gradientUnits="userSpaceOnUse" id="color-2"><stop offset="0" stop-color="#8ab4ff"></stop><stop offset="1" stop-color="#e492ff"></stop></linearGradient><linearGradient x1="86" y1="18.12719" x2="86" y2="151.69863" gradientUnits="userSpaceOnUse" id="color-3"><stop offset="0" stop-color="#1a6dff"></stop><stop offset="1" stop-color="#c822ff"></stop></linearGradient><linearGradient x1="72.5625" y1="18.12719" x2="72.5625" y2="151.69863" gradientUnits="userSpaceOnUse" id="color-4"><stop offset="0" stop-color="#1a6dff"></stop><stop offset="1" stop-color="#c822ff"></stop></linearGradient><linearGradient x1="59.125" y1="18.12719" x2="59.125" y2="151.69863" gradientUnits="userSpaceOnUse" id="color-5"><stop offset="0" stop-color="#1a6dff"></stop><stop offset="1" stop-color="#c822ff"></stop></linearGradient><linearGradient x1="45.6875" y1="18.12719" x2="45.6875" y2="151.69863" gradientUnits="userSpaceOnUse" id="color-6"><stop offset="0" stop-color="#1a6dff"></stop><stop offset="1" stop-color="#c822ff"></stop></linearGradient><linearGradient x1="126.3125" y1="18.12719" x2="126.3125" y2="151.69863" gradientUnits="userSpaceOnUse" id="color-7"><stop offset="0" stop-color="#1a6dff"></stop><stop offset="1" stop-color="#c822ff"></stop></linearGradient><linearGradient x1="112.875" y1="18.12719" x2="112.875" y2="151.69863" gradientUnits="userSpaceOnUse" id="color-8"><stop offset="0" stop-color="#1a6dff"></stop><stop offset="1" stop-color="#c822ff"></stop></linearGradient><linearGradient x1="99.4375" y1="18.12719" x2="99.4375" y2="151.69863" gradientUnits="userSpaceOnUse" id="color-9"><stop offset="0" stop-color="#1a6dff"></stop><stop offset="1" stop-color="#c822ff"></stop></linearGradient><linearGradient x1="61.8125" y1="18.12719" x2="61.8125" y2="151.69863" gradientUnits="userSpaceOnUse" id="color-10"><stop offset="0" stop-color="#1a6dff"></stop><stop offset="1" stop-color="#c822ff"></stop></linearGradient><linearGradient x1="110.1875" y1="18.12719" x2="110.1875" y2="151.69863" gradientUnits="userSpaceOnUse" id="color-11"><stop offset="0" stop-color="#1a6dff"></stop><stop offset="1" stop-color="#c822ff"></stop></linearGradient><linearGradient x1="110.1875" y1="18.12719" x2="110.1875" y2="151.69863" gradientUnits="userSpaceOnUse" id="color-12"><stop offset="0" stop-color="#1a6dff"></stop><stop offset="1" stop-color="#c822ff"></stop></linearGradient><linearGradient x1="55.09375" y1="18.12719" x2="55.09375" y2="151.69863" gradientUnits="userSpaceOnUse" id="color-13"><stop offset="0" stop-color="#1a6dff"></stop><stop offset="1" stop-color="#c822ff"></stop></linearGradient><linearGradient x1="71.21875" y1="18.12719" x2="71.21875" y2="151.69863" gradientUnits="userSpaceOnUse" id="color-14"><stop offset="0" stop-color="#1a6dff"></stop><stop offset="1" stop-color="#c822ff"></stop></linearGradient><linearGradient x1="86" y1="18.12719" x2="86" y2="151.69863" gradientUnits="userSpaceOnUse" id="color-15"><stop offset="0" stop-color="#1a6dff"></stop><stop offset="1" stop-color="#c822ff"></stop></linearGradient></defs><g fill="none" fill-rule="nonzero" stroke="none" stroke-width="1" stroke-linecap="butt" stroke-linejoin="miter" stroke-miterlimit="10" stroke-dasharray="" stroke-dashoffset="0" font-family="none" font-weight="none" font-size="none" text-anchor="none" style="mix-blend-mode: normal"><path d="M0,172v-172h172v172z" fill="none"></path><g><path d="M111.41569,68.16575l0.89225,3.88613c0.43,1.8705 1.892,3.3325 3.7625,3.7625l3.88612,0.89225c1.30612,0.301 1.30612,2.15806 0,2.45906l-3.88344,0.89494c-1.8705,0.43 -3.3325,1.892 -3.7625,3.7625l-0.89225,3.88612c-0.301,1.30612 -2.15806,1.30612 -2.45906,0l-0.89494,-3.88612c-0.43,-1.8705 -1.892,-3.3325 -3.7625,-3.7625l-3.88612,-0.89225c-1.30612,-0.301 -1.30612,-2.15806 0,-2.45906l3.88612,-0.89225c1.8705,-0.43 3.3325,-1.892 3.7625,-3.7625l0.89225,-3.88612c0.301,-1.30613 2.16075,-1.30613 2.45906,-0.00269z" fill="url(#color-1)"></path><path d="M60.04681,100.17119l0.66919,2.91325c0.3225,1.40287 1.419,2.49938 2.82188,2.82187l2.91325,0.66919c0.97825,0.22575 0.97825,1.61787 0,1.84363l-2.91325,0.66919c-1.40287,0.3225 -2.49938,1.419 -2.82188,2.82187l-0.66919,2.91325c-0.22575,0.97825 -1.61788,0.97825 -1.84363,0l-0.66919,-2.91325c-0.3225,-1.40288 -1.419,-2.49938 -2.82188,-2.82187l-2.91325,-0.66919c-0.97825,-0.22575 -0.97825,-1.61787 0,-1.84363l2.91325,-0.66919c1.40287,-0.3225 2.49938,-1.419 2.82188,-2.82187l0.66919,-2.91325c0.22575,-0.97825 1.61788,-0.97825 1.84363,0z" fill="url(#color-2)"></path><g><rect x="31" y="6" transform="scale(2.6875,2.6875)" width="2" height="8" fill="url(#color-3)"></rect><rect x="26" y="9" transform="scale(2.6875,2.6875)" width="2" height="6" fill="url(#color-4)"></rect><rect x="21" y="12" transform="scale(2.6875,2.6875)" width="2" height="4" fill="url(#color-5)"></rect><rect x="16" y="15" transform="scale(2.6875,2.6875)" width="2" height="3" fill="url(#color-6)"></rect><rect x="46" y="15" transform="scale(2.6875,2.6875)" width="2" height="3" fill="url(#color-7)"></rect><rect x="41" y="12" transform="scale(2.6875,2.6875)" width="2" height="4" fill="url(#color-8)"></rect><rect x="36" y="9" transform="scale(2.6875,2.6875)" width="2" height="6" fill="url(#color-9)"></rect><rect x="18" y="25" transform="scale(2.6875,2.6875)" width="10" height="2" fill="url(#color-10)"></rect><rect x="36" y="37" transform="scale(2.6875,2.6875)" width="10" height="2" fill="url(#color-11)"></rect><rect x="36" y="41" transform="scale(2.6875,2.6875)" width="10" height="2" fill="url(#color-12)"></rect><rect x="18" y="29" transform="scale(2.6875,2.6875)" width="5" height="2" fill="url(#color-13)"></rect><rect x="25" y="29" transform="scale(2.6875,2.6875)" width="3" height="2" fill="url(#color-14)"></rect><path d="M139.75,64.5h-2.6875v-2.6875c0,-4.44512 -3.61738,-8.0625 -8.0625,-8.0625h-32.25c-4.41019,0 -8.299,2.16613 -10.75,5.45831c-2.451,-3.29219 -6.33981,-5.45831 -10.75,-5.45831h-32.33331c-4.39944,0 -7.97919,3.57975 -7.97919,7.97919v2.77081h-2.6875c-4.44513,0 -8.0625,3.61737 -8.0625,8.0625v69.875c0,4.44512 3.61737,8.0625 8.0625,8.0625h43.45956c1.10994,3.12825 4.09844,5.375 7.60294,5.375h5.375c3.5045,0 6.493,-2.24675 7.60294,-5.375h43.45956c4.44512,0 8.0625,-3.61738 8.0625,-8.0625v-26.875v-29.5625v-5.375v-8.0625c0,-4.44513 -3.61737,-8.0625 -8.0625,-8.0625zM88.6875,80.625v-13.4375c0,-4.44512 3.61738,-8.0625 8.0625,-8.0625h32.25c1.48081,0 2.6875,1.204 2.6875,2.6875v2.6875v5.375v40.3125v13.4375h-34.9375c-3.02344,0 -5.81575,1.00244 -8.0625,2.69288zM131.6875,129v2.77081c0,1.43512 -1.16906,2.60419 -2.60419,2.60419h-39.90131c1.11263,-3.12019 4.06888,-5.375 7.568,-5.375zM40.3125,61.72919c0,-1.43513 1.16906,-2.60419 2.60419,-2.60419h32.33331c4.44513,0 8.0625,3.61738 8.0625,8.0625v13.4375v45.75469c-2.25213,-1.70388 -5.02563,-2.75469 -8.0625,-2.75469h-34.9375zM40.3125,129h34.9375c3.49912,0 6.45538,2.25481 7.568,5.375h-39.90131c-1.43512,0 -2.60419,-1.16906 -2.60419,-2.60419zM142.4375,86v56.4375c0,1.48081 -1.204,2.6875 -2.6875,2.6875h-48.375v2.6875c0,1.48081 -1.204,2.6875 -2.6875,2.6875h-5.375c-1.4835,0 -2.6875,-1.20669 -2.6875,-2.6875v-2.6875h-48.375c-1.4835,0 -2.6875,-1.20669 -2.6875,-2.6875v-69.875c0,-1.48081 1.204,-2.6875 2.6875,-2.6875h2.6875v61.89581c0,4.39944 3.57975,7.97919 7.97919,7.97919h40.39581h5.375h40.39581c4.39944,0 7.97919,-3.57975 7.97919,-7.97919v-51.14581v-10.75h2.6875c1.48081,0 2.6875,1.204 2.6875,2.6875v8.0625z" fill="url(#color-15)"></path></g></g></g></svg>