<svg version="1.1" xmlns="http://www.w3.org/2000/svg" xmlns:xlink="http://www.w3.org/1999/xlink" viewBox="0 0 172 172"><defs><linearGradient x1="40.3125" y1="114.99006" x2="40.3125" y2="124.60056" gradientUnits="userSpaceOnUse" id="color-1"><stop offset="0" stop-color="#8ab4ff"></stop><stop offset="1" stop-color="#e492ff"></stop></linearGradient><linearGradient x1="79.28125" y1="61.92806" x2="79.28125" y2="69.19238" gradientUnits="userSpaceOnUse" id="color-2"><stop offset="0" stop-color="#8ab4ff"></stop><stop offset="1" stop-color="#e492ff"></stop></linearGradient><linearGradient x1="126.3125" y1="114.99006" x2="126.3125" y2="124.60056" gradientUnits="userSpaceOnUse" id="color-3"><stop offset="0" stop-color="#8ab4ff"></stop><stop offset="1" stop-color="#e492ff"></stop></linearGradient><linearGradient x1="120.02644" y1="66.8435" x2="120.02644" y2="85.60763" gradientUnits="userSpaceOnUse" id="color-4"><stop offset="0" stop-color="#8ab4ff"></stop><stop offset="1" stop-color="#e492ff"></stop></linearGradient><linearGradient x1="86" y1="35.73838" x2="86" y2="128.32006" gradientUnits="userSpaceOnUse" id="color-5"><stop offset="0" stop-color="#1a6dff"></stop><stop offset="1" stop-color="#c822ff"></stop></linearGradient><linearGradient x1="41.65625" y1="35.73838" x2="41.65625" y2="128.32006" gradientUnits="userSpaceOnUse" id="color-6"><stop offset="0" stop-color="#1a6dff"></stop><stop offset="1" stop-color="#c822ff"></stop></linearGradient></defs><g fill="none" fill-rule="nonzero" stroke="none" stroke-width="1" stroke-linecap="butt" stroke-linejoin="miter" stroke-miterlimit="10" stroke-dasharray="" stroke-dashoffset="0" font-family="none" font-weight="none" font-size="none" text-anchor="none" style="mix-blend-mode: normal"><path d="M0,172v-172h172v172z" fill="none"></path><g><circle cx="15" cy="44.934" transform="scale(2.6875,2.6875)" r="2" fill="url(#color-1)"></circle><rect x="25" y="22.978" transform="scale(2.6875,2.6875)" width="9" height="3" fill="url(#color-2)"></rect><circle cx="47" cy="44.934" transform="scale(2.6875,2.6875)" r="2" fill="url(#color-3)"></circle><g fill="url(#color-4)"><path d="M129.76594,82.54656l-3.698,-13.55575c-0.31981,-1.16906 -1.38138,-1.98069 -2.59344,-1.98069h-10.5995c-1.4835,0 -2.6875,1.204 -2.6875,2.6875v13.55575c0,1.4835 1.204,2.6875 2.6875,2.6875h14.30019c1.77106,0 3.05838,-1.68506 2.59075,-3.39431z"></path></g><g><path d="M158.5625,107.32531v-13.31925c0,-4.44512 -3.61738,-8.0625 -8.0625,-8.0625h-6.6435c-1.20937,0 -2.27631,-0.817 -2.59344,-1.98069l-5.90175,-21.63975c-0.05375,-0.19619 -0.13975,-0.37625 -0.20694,-0.56706h15.34563c4.44512,0 8.0625,-3.61737 8.0625,-8.0625c0,-10.37106 -8.43875,-18.8125 -18.8125,-18.8125h-112.875c-7.40944,0 -13.4375,6.02806 -13.4375,13.4375v59.00675c-2.96431,0 -5.375,2.41069 -5.375,5.375v5.375c0,2.96431 2.41069,5.375 5.375,5.375v0.11825h10.97575c1.23894,7.67012 7.88513,13.55306 15.89925,13.55306c8.01413,0 14.663,-5.88294 15.89925,-13.55306h54.19881c1.23894,7.67012 7.88512,13.55306 15.89925,13.55306c8.01413,0 14.663,-5.88294 15.89925,-13.55306h16.35344v-0.11825c2.96431,0 5.375,-2.41069 5.375,-5.375v-5.375c0,-2.96431 -2.41069,-5.375 -5.375,-5.375zM40.3125,131.74394c-5.92862,0 -10.75,-4.82138 -10.75,-10.75c0,-5.92863 4.82138,-10.75 10.75,-10.75c5.92862,0 10.75,4.82137 10.75,10.75c0,5.92863 -4.82138,10.75 -10.75,10.75zM69.875,118.19356v-43h18.8125v10.75h-2.6875v8.0625h2.6875v24.1875zM88.6875,69.81856h-18.8125v-5.375c0,-1.4835 1.20669,-2.6875 2.6875,-2.6875h13.4375c1.48081,0 2.6875,1.204 2.6875,2.6875zM99.4375,118.19356h-5.375v-53.75c0,-4.44512 -3.61738,-8.0625 -8.0625,-8.0625h-13.4375c-4.44513,0 -8.0625,3.61738 -8.0625,8.0625v53.75h-8.32319c-1.333,-7.55725 -7.93081,-13.32194 -15.86431,-13.32194c-7.9335,0 -14.53131,5.76469 -15.86431,13.32194h-5.63569v-10.86825v-59.00675c0,-4.44512 3.61737,-8.0625 8.0625,-8.0625h112.875c7.40944,0 13.4375,6.02806 13.4375,13.4375c0,1.4835 -1.20669,2.6875 -2.6875,2.6875h-47.48006c-1.97531,0 -3.58244,1.60712 -3.58244,3.58244zM126.3125,131.74394c-5.92863,0 -10.75,-4.82138 -10.75,-10.75c0,-5.92863 4.82137,-10.75 10.75,-10.75c5.92863,0 10.75,4.82137 10.75,10.75c0,5.92863 -4.82137,10.75 -10.75,10.75zM126.3125,104.86894c-7.9335,0 -14.53131,5.76469 -15.86431,13.32194h-5.63569v-56.4375h22.7685c1.20938,0 2.27631,0.81431 2.59344,1.978l5.90175,21.63975c0.95406,3.50181 4.15219,5.94475 7.78031,5.94475h6.6435c1.48081,0 2.6875,1.204 2.6875,2.6875v13.31925c-2.96431,0 -5.375,2.41069 -5.375,5.375v5.49325h-5.63569c-1.333,-7.55725 -7.93081,-13.32194 -15.86431,-13.32194z" fill="url(#color-5)"></path><path d="M53.75,56.38106h-24.1875c-2.96431,0 -5.375,2.41069 -5.375,5.375v21.5c0,2.96431 2.41069,5.375 5.375,5.375h24.1875c2.96431,0 5.375,-2.41069 5.375,-5.375v-21.5c0,-2.96431 -2.41069,-5.375 -5.375,-5.375zM29.5625,83.25606v-21.5h24.1875l0.00269,21.5z" fill="url(#color-6)"></path></g></g></g></svg>