<svg version="1.1" xmlns="http://www.w3.org/2000/svg" xmlns:xlink="http://www.w3.org/1999/xlink" viewBox="0 0 172 172"><defs><linearGradient x1="114.13006" y1="64.5" x2="114.13006" y2="83.49525" gradientUnits="userSpaceOnUse" id="color-1"><stop offset="0" stop-color="#8ab4ff"></stop><stop offset="1" stop-color="#e492ff"></stop></linearGradient><linearGradient x1="62.44138" y1="107.5" x2="62.44138" y2="126.3125" gradientUnits="userSpaceOnUse" id="color-2"><stop offset="0" stop-color="#8ab4ff"></stop><stop offset="1" stop-color="#e492ff"></stop></linearGradient><linearGradient x1="108.12888" y1="107.5" x2="108.12888" y2="126.3125" gradientUnits="userSpaceOnUse" id="color-3"><stop offset="0" stop-color="#8ab4ff"></stop><stop offset="1" stop-color="#e492ff"></stop></linearGradient><linearGradient x1="57.86994" y1="64.5" x2="57.86994" y2="83.49525" gradientUnits="userSpaceOnUse" id="color-4"><stop offset="0" stop-color="#8ab4ff"></stop><stop offset="1" stop-color="#e492ff"></stop></linearGradient><linearGradient x1="86" y1="43.39238" x2="86" y2="64.89238" gradientUnits="userSpaceOnUse" id="color-5"><stop offset="0" stop-color="#8ab4ff"></stop><stop offset="1" stop-color="#e492ff"></stop></linearGradient><linearGradient x1="86" y1="76.83831" x2="86" y2="102.4905" gradientUnits="userSpaceOnUse" id="color-6"><stop offset="0" stop-color="#8ab4ff"></stop><stop offset="1" stop-color="#e492ff"></stop></linearGradient><linearGradient x1="86" y1="24.1875" x2="86" y2="147.8125" gradientUnits="userSpaceOnUse" id="color-7"><stop offset="0" stop-color="#1a6dff"></stop><stop offset="1" stop-color="#c822ff"></stop></linearGradient><linearGradient x1="86" y1="43" x2="86" y2="129" gradientUnits="userSpaceOnUse" id="color-8"><stop offset="0" stop-color="#1a6dff"></stop><stop offset="1" stop-color="#c822ff"></stop></linearGradient></defs><g fill="none" fill-rule="nonzero" stroke="none" stroke-width="1" stroke-linecap="butt" stroke-linejoin="miter" stroke-miterlimit="10" stroke-dasharray="" stroke-dashoffset="0" font-family="none" font-weight="none" font-size="none" text-anchor="none" style="mix-blend-mode: normal"><path d="M0,172v-172h172v172z" fill="none"></path><g><path d="M114.13006,64.5c-5.246,0 -9.49762,4.25163 -9.49762,9.49762c0,5.246 4.25163,9.49762 9.49762,9.49762c5.246,0 9.49762,-4.25163 9.49762,-9.49762c0,-5.246 -4.25163,-9.49762 -9.49762,-9.49762z" fill="url(#color-1)"></path><path d="M62.44138,107.5c-5.29438,0 -9.58362,4.21131 -9.58362,9.40625c0,5.19494 4.29194,9.40625 9.58362,9.40625c5.29437,0 9.58362,-4.21131 9.58362,-9.40625c0,-5.19494 -4.29194,-9.40625 -9.58362,-9.40625z" fill="url(#color-2)"></path><path d="M108.12888,107.5c-5.29438,0 -9.58363,4.21131 -9.58363,9.40625c0,5.19494 4.29194,9.40625 9.58363,9.40625c5.29437,0 9.58362,-4.21131 9.58362,-9.40625c0,-5.19494 -4.29194,-9.40625 -9.58362,-9.40625z" fill="url(#color-3)"></path><path d="M67.36756,73.99763c0,-5.246 -4.25163,-9.49762 -9.49762,-9.49762c-5.246,0 -9.49762,4.25163 -9.49762,9.49762c0,5.246 4.25163,9.49762 9.49762,9.49762c5.246,0 9.49762,-4.25431 9.49762,-9.49762z" fill="url(#color-4)"></path><circle cx="32" cy="20.146" transform="scale(2.6875,2.6875)" r="4" fill="url(#color-5)"></circle><circle cx="32" cy="33.364" transform="scale(2.6875,2.6875)" r="4.773" fill="url(#color-6)"></circle><g><path d="M134.375,24.1875h-96.75c-7.40944,0 -13.4375,6.02806 -13.4375,13.4375v96.75c0,7.40944 6.02806,13.4375 13.4375,13.4375h96.75c7.40944,0 13.4375,-6.02806 13.4375,-13.4375v-96.75c0,-7.40944 -6.02806,-13.4375 -13.4375,-13.4375zM142.4375,134.375c0,4.44512 -3.61738,8.0625 -8.0625,8.0625h-96.75c-4.44512,0 -8.0625,-3.61738 -8.0625,-8.0625v-96.75c0,-4.44512 3.61738,-8.0625 8.0625,-8.0625h96.75c4.44512,0 8.0625,3.61738 8.0625,8.0625z" fill="url(#color-7)"></path><path d="M116.90625,61.8125c-6.66769,0 -12.09375,5.42606 -12.09375,12.09375c0,1.15294 0.215,2.24944 0.516,3.30563l-6.24038,4.16025c-2.29512,-3.60931 -6.03344,-6.20544 -10.40331,-6.97406v-7.53575c5.375,-1.22819 9.40625,-6.02537 9.40625,-11.76856c0,-6.66769 -5.42606,-12.09375 -12.09375,-12.09375c-6.66769,0 -12.09375,5.42606 -12.09375,12.09375c0,5.74319 4.03125,10.54037 9.40625,11.76856v7.53575c-4.32688,0.76056 -8.03563,3.311 -10.33613,6.86656l-6.52794,-3.33788c0.4515,-1.26312 0.74175,-2.60419 0.74175,-4.0205c0,-6.66769 -5.42606,-12.09375 -12.09375,-12.09375c-6.66769,0 -12.09375,5.42606 -12.09375,12.09375c0,6.66769 5.42606,12.09375 12.09375,12.09375c3.30831,0 6.30488,-1.34106 8.48981,-3.49912l7.29656,3.73294c-0.24994,1.10456 -0.39506,2.24944 -0.39506,3.42925c0,3.47494 1.16369,6.67575 3.10138,9.2665l-5.99313,6.751c-1.37869,-0.54556 -2.86756,-0.86806 -4.43706,-0.86806c-6.66769,0 -12.09375,5.42606 -12.09375,12.09375c0,6.66769 5.42606,12.09375 12.09375,12.09375c6.66769,0 12.09375,-5.42606 12.09375,-12.09375c0,-3.14438 -1.23356,-5.98506 -3.20887,-8.13775l5.45294,-6.14362c2.44563,1.60981 5.36694,2.55581 8.50594,2.55581c2.84069,0 5.49594,-0.77938 7.78838,-2.11775l5.98775,5.92594c-1.85975,2.12581 -3.02613,4.87512 -3.02613,7.91737c0,6.66769 5.42606,12.09375 12.09375,12.09375c6.66769,0 12.09375,-5.42606 12.09375,-12.09375c0,-6.66769 -5.42606,-12.09375 -12.09375,-12.09375c-1.66088,0 -3.24381,0.33862 -4.687,0.946l-6.24038,-6.17588c2.24406,-2.69288 3.59856,-6.149 3.59856,-9.91956c0,-1.10456 -0.12094,-2.17956 -0.34131,-3.21963l6.75906,-4.50694c2.2145,2.47519 5.39919,4.0635 8.97356,4.0635c6.66769,0 12.09375,-5.42606 12.09375,-12.09375c0,-6.66769 -5.42606,-12.09375 -12.09375,-12.09375zM55.09375,80.625c-3.70338,0 -6.71875,-3.01269 -6.71875,-6.71875c0,-3.70606 3.01537,-6.71875 6.71875,-6.71875c3.70338,0 6.71875,3.01269 6.71875,6.71875c0,3.70606 -3.01537,6.71875 -6.71875,6.71875zM79.28125,55.09375c0,-3.70606 3.01538,-6.71875 6.71875,-6.71875c3.70337,0 6.71875,3.01269 6.71875,6.71875c0,3.70606 -3.01538,6.71875 -6.71875,6.71875c-3.70337,0 -6.71875,-3.01269 -6.71875,-6.71875zM63.15625,123.625c-3.70338,0 -6.71875,-3.01269 -6.71875,-6.71875c0,-3.70606 3.01537,-6.71875 6.71875,-6.71875c3.70337,0 6.71875,3.01269 6.71875,6.71875c0,3.70606 -3.01538,6.71875 -6.71875,6.71875zM75.86006,89.66306c0,-5.59 4.54725,-10.13725 10.13994,-10.13725c5.59269,0 10.13994,4.54725 10.13994,10.13725c0,5.59269 -4.54725,10.13994 -10.13994,10.13994c-5.59269,0 -10.13994,-4.54725 -10.13994,-10.13994zM115.5625,116.90625c0,3.70606 -3.01538,6.71875 -6.71875,6.71875c-3.70337,0 -6.71875,-3.01269 -6.71875,-6.71875c0,-3.70606 3.01538,-6.71875 6.71875,-6.71875c3.70337,0 6.71875,3.01269 6.71875,6.71875zM116.90625,80.625c-3.70337,0 -6.71875,-3.01269 -6.71875,-6.71875c0,-3.70606 3.01538,-6.71875 6.71875,-6.71875c3.70337,0 6.71875,3.01269 6.71875,6.71875c0,3.70606 -3.01538,6.71875 -6.71875,6.71875z" fill="url(#color-8)"></path></g></g></g></svg>