<svg version="1.1" xmlns="http://www.w3.org/2000/svg" xmlns:xlink="http://www.w3.org/1999/xlink" viewBox="0 0 172 172"><defs><linearGradient x1="86" y1="8.0625" x2="86" y2="163.9375" gradientUnits="userSpaceOnUse" id="color-1"><stop offset="0" stop-color="#1a6dff"></stop><stop offset="1" stop-color="#c822ff"></stop></linearGradient><linearGradient x1="86" y1="30.90625" x2="86" y2="81.96875" gradientUnits="userSpaceOnUse" id="color-2"><stop offset="0" stop-color="#8ab4ff"></stop><stop offset="1" stop-color="#e492ff"></stop></linearGradient></defs><g fill="none" fill-rule="nonzero" stroke="none" stroke-width="1" stroke-linecap="butt" stroke-linejoin="miter" stroke-miterlimit="10" stroke-dasharray="" stroke-dashoffset="0" font-family="none" font-weight="none" font-size="none" text-anchor="none" style="mix-blend-mode: normal"><path d="M0,172v-172h172v172z" fill="none"></path><g><path d="M153.1875,53.67475c-0.00806,-0.22575 -0.043,-0.44613 -0.10481,-0.65844c-0.00538,-0.0215 -0.01881,-0.04031 -0.02419,-0.06181c-0.08869,-0.2795 -0.22575,-0.53481 -0.39775,-0.77131c-0.03494,-0.04838 -0.0645,-0.09675 -0.10212,-0.13975c-0.16394,-0.19888 -0.34669,-0.37894 -0.56706,-0.52675l-64.5,-43c-0.903,-0.602 -2.07744,-0.602 -2.98044,0l-64.5,43c-0.72831,0.48106 -1.17175,1.28731 -1.19862,2.15806c-0.00269,0.13438 0.0215,0.26606 0.03763,0.40044c0.00269,0.07794 -0.02956,0.1505 -0.01881,0.23112l5.375,58.88581c0.03494,0.28756 0.13438,0.54825 0.24994,0.79819c0.0215,0.04569 0.0215,0.09944 0.04569,0.14513c0.16125,0.30637 0.38431,0.56706 0.645,0.78475c0.01344,0.01075 0.01612,0.02687 0.02956,0.03763l59.125,48.375c0.49181,0.40312 1.09381,0.60469 1.6985,0.60469c0.60469,0 1.20669,-0.20156 1.70119,-0.60737l59.125,-48.375c0.01344,-0.01075 0.01881,-0.02688 0.02956,-0.03763c0.26069,-0.22037 0.48375,-0.48106 0.645,-0.78744c0.01881,-0.03763 0.01881,-0.08062 0.03763,-0.11825c0.12094,-0.258 0.22306,-0.52675 0.258,-0.82506l5.375,-59.125c0.00538,-0.03494 -0.01075,-0.06719 -0.00806,-0.10213c0.00537,-0.09406 0.02687,-0.18812 0.02419,-0.28487zM142.58263,111.48288l-21.29844,17.42575l2.33544,-50.8045c0.01613,-0.26606 -0.04838,-0.51062 -0.10481,-0.75787l23.58281,-17.68912zM24.8755,59.63831l7.74269,5.80769c0.20962,0.38162 0.48106,0.73369 0.87612,0.98363c0.28219,0.18006 0.58588,0.2795 0.89225,0.344l14.09863,10.57263c-0.05644,0.24725 -0.12094,0.49181 -0.10481,0.75787l2.33544,50.8045l-21.29844,-17.42575zM73.66975,22.19875c3.43194,3.01269 7.81794,4.67625 12.39475,4.67625c4.55531,0 8.93056,-1.67162 12.33294,-4.62787l34.70906,23.13937c-0.9245,2.5155 -1.419,5.31587 -1.419,8.3635c0,2.99925 0.97825,5.96894 2.74931,8.68869l-36.808,27.606c-3.30831,-2.60688 -7.38794,-4.04469 -11.62881,-4.04469c-4.24088,0 -8.3205,1.43781 -11.62881,4.04469l-35.87275,-26.90456c1.18787,-2.73587 1.81406,-5.92862 1.81406,-9.39012c0,-2.6875 -0.77937,-5.35619 -2.20913,-7.83944zM86,98.76563l-7.10037,-5.32662c4.27044,-2.58806 9.93031,-2.58806 14.20075,0zM53.97575,81.46619l29.33675,22.00256v52.11063l-26.92069,-22.02675zM88.6875,103.46875l29.33675,-22.00256l-2.41606,52.08913l-26.92069,22.02406zM138.73681,59.21369c-1.07769,-1.75763 -1.67431,-3.62006 -1.67431,-5.46369c0,-1.87856 0.2365,-3.66575 0.67994,-5.27556l8.10819,5.40456zM86,13.98038l7.69163,5.12775c-2.22525,1.53456 -4.8805,2.39188 -7.62712,2.39188c-2.77081,0 -5.418,-0.88956 -7.66206,-2.45637zM33.63944,48.88563c0.85194,1.57756 1.29806,3.23306 1.29806,4.86437c0,2.2145 -0.34131,4.22744 -0.93525,6.01731l-7.85287,-5.88831z" fill="url(#color-1)"></path><path d="M52.1375,57.24375l32.25,24.1875c0.47837,0.35744 1.04544,0.5375 1.6125,0.5375c0.56706,0 1.13412,-0.18006 1.6125,-0.5375l32.25,-24.1875c0.69875,-0.52137 1.09919,-1.35181 1.075,-2.22525c-0.02687,-0.87075 -0.47031,-1.677 -1.19594,-2.16075l-32.25,-21.5c-0.903,-0.602 -2.07744,-0.602 -2.98044,0l-32.25,21.5c-0.72831,0.48375 -1.17175,1.29 -1.19594,2.16075c-0.02687,0.87344 0.37625,1.70119 1.07231,2.22525zM76.36531,43.24725l5.504,3.88613l-5.99313,3.97213l-5.32662,-3.9775zM86.57781,50.45781l6.29412,4.44512l-6.26187,4.21938l-6.16244,-4.601zM102.942,48.117l-5.29975,3.57169l-6.2565,-4.41556l5.15731,-3.4185zM97.52938,67.2735l-6.35594,-4.74613l6.39625,-4.31075l6.20006,4.37794zM81.88813,62.30431l-7.39869,4.98531l-6.24306,-4.68163l7.44169,-4.93156zM86,75.92188l-6.95794,-5.21913l7.40944,-4.99338l6.59781,4.92619zM108.29012,59.20563l-5.95012,-4.20056l5.43681,-3.66306l5.82381,3.88075zM86,36.82413l5.69481,3.79475l-5.01756,3.32712l-5.51744,-3.89419zM65.80075,50.2885l5.31319,3.96944l-7.43094,4.92619l-5.28094,-3.96137z" fill="url(#color-2)"></path></g></g></svg>