<svg version="1.1" xmlns="http://www.w3.org/2000/svg" xmlns:xlink="http://www.w3.org/1999/xlink" viewBox="0 0 172 172"><defs><linearGradient x1="87.34375" y1="-0.93525" x2="87.34375" y2="171.957" gradientUnits="userSpaceOnUse" id="color-1"><stop offset="0" stop-color="#1a6dff"></stop><stop offset="1" stop-color="#c822ff"></stop></linearGradient></defs><g fill="none" fill-rule="nonzero" stroke="none" stroke-width="1" stroke-linecap="butt" stroke-linejoin="miter" stroke-miterlimit="10" stroke-dasharray="" stroke-dashoffset="0" font-family="none" font-weight="none" font-size="none" text-anchor="none" style="mix-blend-mode: normal"><path d="M0,172v-172h172v172z" fill="none"></path><g fill="url(#color-1)"><path d="M127.77181,14.56356l-21.71769,-13.03169c-2.18763,-1.31419 -4.78644,-1.80869 -7.29925,-1.38675l-40.95481,6.82625c-3.90494,0.65038 -6.73756,3.99631 -6.73756,7.955v40.42806c0,2.49669 1.1825,4.89125 3.16319,6.40431l1.55875,1.19325l-3.92644,3.60662c-2.2145,2.02906 -3.483,4.91544 -3.483,7.91738v29.34213l-0.91644,0.45956c-2.74931,1.37331 -4.45856,4.13606 -4.45856,7.21056v38.85319c0,3.32712 1.9995,6.26994 5.09012,7.49544l33.80606,13.40525c1.28463,0.50794 2.62569,0.76325 3.96675,0.76325c1.45394,0 2.90519,-0.29831 4.2785,-0.89494l31.32012,-13.59875c2.94819,-1.27925 4.85094,-4.18175 4.85094,-7.396v-35.63894l0.32519,-0.32519c1.52381,-1.52381 2.36231,-3.5475 2.36231,-5.70019v-41.76106c1.65819,-1.49425 2.6875,-3.64694 2.6875,-5.98775v-39.22406c0,-2.8165 -1.49963,-5.46637 -3.91569,-6.91494zM99.63369,5.44756c0.29831,-0.04838 0.59394,-0.07256 0.88956,-0.07256c0.9675,0 1.92694,0.26337 2.76544,0.76594l19.6725,11.8035l-44.36256,7.53306l-18.60288,-13.42406zM56.4375,16.11694l18.8125,13.57456v41.38212l-17.759,-13.58531c-0.66112,-0.50256 -1.0535,-1.30075 -1.0535,-2.13387zM55.4915,70.51731l4.63056,-4.24894l8.02756,6.14094l-12.72262,-1.81675c0.02419,-0.02419 0.04031,-0.05106 0.0645,-0.07525zM83.3125,166.02031l-33.24169,-13.18219c-1.02931,-0.40581 -1.69581,-1.38675 -1.69581,-2.49669v-33.57763c0,3.98556 2.97506,7.4175 6.923,7.98188l28.0145,4.00169zM56.05588,119.42713c-1.31419,-0.19081 -2.30588,-1.333 -2.30588,-2.66331v-40.98169l51.0625,7.29387v43.20425c-0.30637,0.01075 -0.61544,0.0215 -0.92181,-0.0215zM106.55131,77.8945l-15.52031,-2.21719l22.38956,-4.63325zM120.9375,150.11569c0,1.07231 -0.63425,2.03981 -1.61787,2.46444l-30.63212,13.30312v-36.36725l14.44263,2.064c0.50256,0.07256 1.00513,0.1075 1.505,0.1075c2.82994,0 5.59538,-1.12338 7.61638,-3.14706l8.686,-8.68869zM123.625,108.45138c0,0.70681 -0.28756,1.40019 -0.78744,1.90006l-12.65006,12.64738v-41.13756l12.83819,-12.80056l0.59931,-0.12631zM126.3125,60.70256c0,1.2685 -0.90031,2.37575 -2.14194,2.63106l-43.54556,9.0085v-41.75569l45.6875,-7.7615z"></path></g></g></svg>