<svg version="1.1" xmlns="http://www.w3.org/2000/svg" xmlns:xlink="http://www.w3.org/1999/xlink" viewBox="0 0 172 172"><defs><linearGradient x1="86" y1="56.4375" x2="86" y2="84.65625" gradientUnits="userSpaceOnUse" id="color-1"><stop offset="0" stop-color="#8ab4ff"></stop><stop offset="1" stop-color="#e492ff"></stop></linearGradient><linearGradient x1="86" y1="19.26131" x2="86" y2="156.46625" gradientUnits="userSpaceOnUse" id="color-2"><stop offset="0" stop-color="#1a6dff"></stop><stop offset="1" stop-color="#c822ff"></stop></linearGradient><linearGradient x1="129" y1="19.26131" x2="129" y2="156.46625" gradientUnits="userSpaceOnUse" id="color-3"><stop offset="0" stop-color="#1a6dff"></stop><stop offset="1" stop-color="#c822ff"></stop></linearGradient><linearGradient x1="34.9375" y1="19.26131" x2="34.9375" y2="156.46625" gradientUnits="userSpaceOnUse" id="color-4"><stop offset="0" stop-color="#1a6dff"></stop><stop offset="1" stop-color="#c822ff"></stop></linearGradient><linearGradient x1="56.4375" y1="19.26131" x2="56.4375" y2="156.46625" gradientUnits="userSpaceOnUse" id="color-5"><stop offset="0" stop-color="#1a6dff"></stop><stop offset="1" stop-color="#c822ff"></stop></linearGradient><linearGradient x1="77.9375" y1="19.26131" x2="77.9375" y2="156.46625" gradientUnits="userSpaceOnUse" id="color-6"><stop offset="0" stop-color="#1a6dff"></stop><stop offset="1" stop-color="#c822ff"></stop></linearGradient></defs><g fill="none" fill-rule="nonzero" stroke="none" stroke-width="1" stroke-linecap="butt" stroke-linejoin="miter" stroke-miterlimit="10" stroke-dasharray="" stroke-dashoffset="0" font-family="none" font-weight="none" font-size="none" text-anchor="none" style="mix-blend-mode: normal"><path d="M0,172v-172h172v172z" fill="none"></path><g><path d="M86,59.12231c-5.93706,0 -10.75,4.81294 -10.75,10.75c0,5.93706 4.81294,10.75 10.75,10.75c5.93706,0 10.75,-4.81294 10.75,-10.75c0,-5.93706 -4.81294,-10.75 -10.75,-10.75z" fill="url(#color-1)"></path><path d="M155.42619,115.93875l-19.2425,-86.59662c-1.37869,-6.20006 -6.77519,-10.52962 -13.12575,-10.52962h-74.11588c-6.35056,0 -11.74975,4.32956 -13.12575,10.52963l-19.2425,86.59394c-0.29831,1.33838 -0.44881,2.709 -0.44881,4.08231v3.60662v5.375v16.125c0,4.44512 3.61737,8.0625 8.0625,8.0625h123.625c4.44512,0 8.0625,-3.61738 8.0625,-8.0625v-16.125v-5.375v-3.60662c0,-1.37331 -0.1505,-2.74394 -0.44881,-4.07963zM41.06231,30.5085c0.82775,-3.72219 4.06887,-6.321 7.87975,-6.321h74.11319c3.81087,0 7.052,2.59881 7.87975,6.321l14.1255,63.554h-10.6855v5.375h11.87875l1.19325,5.375h-23.822v5.375h25.01794l1.26313,5.68406c-0.67187,-0.18006 -1.36525,-0.30906 -2.09356,-0.30906h-41.39556l-5.90444,-10.96769c13.94544,-5.805 23.1125,-19.38762 23.1125,-34.7225c0,-20.7475 -16.8775,-37.625 -37.625,-37.625c-20.7475,0 -37.625,16.8775 -37.625,37.625c0,15.33487 9.16706,28.9175 23.1125,34.7225l-5.90444,10.96769h-41.39556c-0.72831,0 -1.42169,0.129 -2.09356,0.30906l1.26313,-5.68406h25.01794v-5.375h-23.82469l1.19325,-5.375h11.88144v-5.375h-10.6855zM93.08694,90.80256c-1.40556,-2.60956 -4.12262,-4.23012 -7.08694,-4.23012c-2.96431,0 -5.68138,1.62325 -7.08694,4.23281l-4.85631,9.02194c-12.22813,-4.86438 -20.30675,-16.63294 -20.30675,-29.95488c0,-17.78319 14.46681,-32.25 32.25,-32.25c17.78319,0 32.25,14.46681 32.25,32.25c0,13.32463 -8.07863,25.09319 -20.30406,29.95488zM83.64575,93.353c0.68263,-1.27119 1.87588,-1.40556 2.35425,-1.40556c0.47837,0 1.67163,0.13706 2.35425,1.40287l11.96206,22.21219h-28.63263zM150.5,145.125c0,1.4835 -1.20669,2.6875 -2.6875,2.6875h-123.625c-1.48081,0 -2.6875,-1.204 -2.6875,-2.6875v-16.125v-5.375c0,-1.4835 1.20669,-2.6875 2.6875,-2.6875h123.625c1.48081,0 2.6875,1.204 2.6875,2.6875v5.375z" fill="url(#color-2)"></path><path d="M139.75,126.3125h-21.5c-2.96431,0 -5.375,2.41069 -5.375,5.375v5.375c0,2.96431 2.41069,5.375 5.375,5.375h21.5c2.96431,0 5.375,-2.41069 5.375,-5.375v-5.375c0,-2.96431 -2.41069,-5.375 -5.375,-5.375zM139.75,137.0625h-21.5v-5.375h21.5z" fill="url(#color-3)"></path><path d="M37.625,126.3125h-5.375c-2.96431,0 -5.375,2.41069 -5.375,5.375v5.375c0,2.96431 2.41069,5.375 5.375,5.375h5.375c2.96431,0 5.375,-2.41069 5.375,-5.375v-5.375c0,-2.96431 -2.41069,-5.375 -5.375,-5.375zM37.625,137.0625h-5.375v-5.375h5.375z" fill="url(#color-4)"></path><path d="M59.125,126.3125h-5.375c-2.96431,0 -5.375,2.41069 -5.375,5.375v5.375c0,2.96431 2.41069,5.375 5.375,5.375h5.375c2.96431,0 5.375,-2.41069 5.375,-5.375v-5.375c0,-2.96431 -2.41069,-5.375 -5.375,-5.375zM59.125,137.0625h-5.375v-5.375h5.375z" fill="url(#color-5)"></path><path d="M80.625,126.3125h-5.375c-2.96431,0 -5.375,2.41069 -5.375,5.375v5.375c0,2.96431 2.41069,5.375 5.375,5.375h5.375c2.96431,0 5.375,-2.41069 5.375,-5.375v-5.375c0,-2.96431 -2.41069,-5.375 -5.375,-5.375zM80.625,137.0625h-5.375v-5.375h5.375z" fill="url(#color-6)"></path></g></g></svg>