<svg version="1.1" xmlns="http://www.w3.org/2000/svg" xmlns:xlink="http://www.w3.org/1999/xlink" viewBox="0 0 172 172"><defs><linearGradient x1="98.599" y1="21.83594" x2="98.599" y2="150.83594" gradientUnits="userSpaceOnUse" id="color-1"><stop offset="0" stop-color="#1a6dff"></stop><stop offset="1" stop-color="#c822ff"></stop></linearGradient><linearGradient x1="127.32031" y1="21.83594" x2="127.32031" y2="150.83594" gradientUnits="userSpaceOnUse" id="color-2"><stop offset="0" stop-color="#1a6dff"></stop><stop offset="1" stop-color="#c822ff"></stop></linearGradient><linearGradient x1="41.14025" y1="21.83594" x2="41.14025" y2="150.83594" gradientUnits="userSpaceOnUse" id="color-3"><stop offset="0" stop-color="#1a6dff"></stop><stop offset="1" stop-color="#c822ff"></stop></linearGradient><linearGradient x1="110.8325" y1="21.83594" x2="110.8325" y2="150.83594" gradientUnits="userSpaceOnUse" id="color-4"><stop offset="0" stop-color="#1a6dff"></stop><stop offset="1" stop-color="#c822ff"></stop></linearGradient><linearGradient x1="24.1875" y1="21.83594" x2="24.1875" y2="150.83594" gradientUnits="userSpaceOnUse" id="color-5"><stop offset="0" stop-color="#1a6dff"></stop><stop offset="1" stop-color="#c822ff"></stop></linearGradient><linearGradient x1="66.78975" y1="21.83594" x2="66.78975" y2="150.83594" gradientUnits="userSpaceOnUse" id="color-6"><stop offset="0" stop-color="#1a6dff"></stop><stop offset="1" stop-color="#c822ff"></stop></linearGradient><linearGradient x1="97.38963" y1="21.83594" x2="97.38963" y2="150.83594" gradientUnits="userSpaceOnUse" id="color-7"><stop offset="0" stop-color="#1a6dff"></stop><stop offset="1" stop-color="#c822ff"></stop></linearGradient><linearGradient x1="128.43831" y1="21.83594" x2="128.43831" y2="150.83594" gradientUnits="userSpaceOnUse" id="color-8"><stop offset="0" stop-color="#1a6dff"></stop><stop offset="1" stop-color="#c822ff"></stop></linearGradient><linearGradient x1="36.99344" y1="21.83594" x2="36.99344" y2="150.83594" gradientUnits="userSpaceOnUse" id="color-9"><stop offset="0" stop-color="#1a6dff"></stop><stop offset="1" stop-color="#c822ff"></stop></linearGradient><linearGradient x1="117.1535" y1="49.14363" x2="117.1535" y2="58.46656" gradientUnits="userSpaceOnUse" id="color-10"><stop offset="0" stop-color="#8ab4ff"></stop><stop offset="1" stop-color="#e492ff"></stop></linearGradient><linearGradient x1="90.33225" y1="82.12462" x2="90.33225" y2="103.44725" gradientUnits="userSpaceOnUse" id="color-11"><stop offset="0" stop-color="#8ab4ff"></stop><stop offset="1" stop-color="#e492ff"></stop></linearGradient><linearGradient x1="48.05788" y1="111.23025" x2="48.05788" y2="124.08188" gradientUnits="userSpaceOnUse" id="color-12"><stop offset="0" stop-color="#8ab4ff"></stop><stop offset="1" stop-color="#e492ff"></stop></linearGradient></defs><g fill="none" fill-rule="nonzero" stroke="none" stroke-width="1" stroke-linecap="butt" stroke-linejoin="miter" stroke-miterlimit="10" stroke-dasharray="" stroke-dashoffset="0" font-family="none" font-weight="none" font-size="none" text-anchor="none" style="mix-blend-mode: normal"><path d="M0,172v-172h172v172z" fill="none"></path><g><path d="M49.38013,150.5c-1.40288,0 -2.58537,-1.09113 -2.67944,-2.51281c-0.09675,-1.48081 1.02663,-2.76006 2.50744,-2.85681l90.03125,-5.891l5.891,-90.22744c0.09675,-1.48081 1.33031,-2.59881 2.85681,-2.50744c1.48081,0.09675 2.60419,1.376 2.50744,2.85681l-6.04687,92.58169c-0.08869,1.34644 -1.161,2.41875 -2.50744,2.50744l-92.38281,6.04688c-0.05913,0.00269 -0.11825,0.00269 -0.17738,0.00269z" fill="url(#color-1)"></path><path d="M141.76563,144.45313c-0.645,0 -1.29,-0.22844 -1.806,-0.69606l-28.89063,-26.20312c-1.09919,-0.99706 -1.17981,-2.69556 -0.18275,-3.79744c0.99706,-1.10187 2.69825,-1.1825 3.79475,-0.18544l28.89063,26.20313c1.09919,0.99706 1.17981,2.69556 0.18275,3.79744c-0.52944,0.58588 -1.25775,0.8815 -1.98875,0.8815z" fill="url(#color-2)"></path><path d="M49.76981,150.3925c-1.04275,0 -2.03712,-0.61275 -2.4725,-1.634l-17.25912,-40.44419c-0.58319,-1.36525 0.05375,-2.9455 1.41631,-3.52869c1.34913,-0.58319 2.94281,0.04837 3.52869,1.41631l17.25913,40.44419c0.58319,1.36525 -0.05375,2.9455 -1.41631,3.52869c-0.34669,0.1505 -0.70412,0.21769 -1.05619,0.21769z" fill="url(#color-3)"></path><path d="M128.00294,27.28888c-0.01075,0 -0.0215,0 -0.03225,0l-34.33819,-0.41388c-1.48619,-0.01881 -2.67406,-1.23625 -2.65525,-2.71975c0.01612,-1.4835 1.10456,-2.6445 2.71706,-2.65525l34.33819,0.41388c1.48619,0.01881 2.67406,1.23625 2.65525,2.71975c-0.01612,1.47275 -1.21475,2.65525 -2.68481,2.65525z" fill="url(#color-4)"></path><path d="M24.1875,125.79113c-1.48619,0 -2.6875,-1.204 -2.6875,-2.6875v-35.89962c0,-1.4835 1.20131,-2.6875 2.6875,-2.6875c1.48619,0 2.6875,1.204 2.6875,2.6875v35.89962c0,1.4835 -1.20131,2.6875 -2.6875,2.6875z" fill="url(#color-5)"></path><path d="M32.57519,110.09613c-1.06694,0 -2.05862,-0.63694 -2.48325,-1.65819l-8.38769,-20.20731c-0.31981,-0.774 -0.26337,-1.6555 0.16125,-2.38112l16.99038,-29.25344c0.13169,-0.22575 0.29563,-0.43537 0.48913,-0.61275l25.50438,-23.83275c0.26337,-0.24456 0.56975,-0.43538 0.90569,-0.559l26.97981,-9.92762c0.83313,-0.30369 1.74956,-0.18544 2.4725,0.3225l15.72994,11.03488c0.95675,0.67188 1.37331,1.88663 1.02125,3.00462l-10.04319,31.99738c-0.13975,0.44613 -0.39238,0.84388 -0.731,1.161l-35.60131,33.1745c-0.34937,0.32519 -0.77669,0.55094 -1.24162,0.65575l-31.17769,7.01438c-0.1935,0.04569 -0.39506,0.06719 -0.58856,0.06719zM27.17869,87.40288l7.01169,16.88825l28.26175,-6.35863l34.54513,-32.19356l9.24231,-29.44694l-12.96719,-9.09987l-25.14962,9.25575l-24.81637,23.19044z" fill="url(#color-6)"></path><path d="M49.76981,150.37369c-0.80087,0 -1.56681,-0.35744 -2.07744,-0.98631c-0.56706,-0.69069 -0.7525,-1.62056 -0.49719,-2.47519l14.26525,-47.37525c0.20694,-0.688 0.68263,-1.26313 1.31419,-1.59906c0.63156,-0.33325 1.376,-0.40313 2.06131,-0.19081l44.12606,13.77881l-12.13406,-43.51062c-0.21769,-0.77937 -0.07256,-1.61519 0.39238,-2.27362c0.46494,-0.65844 1.20669,-1.075 2.01294,-1.12875l45.59881,-3.06106c0.8815,-0.07256 1.7415,0.31981 2.29512,1.01856c0.54825,0.69606 0.71756,1.62056 0.4515,2.46712c-6.06031,19.33119 -16.78881,36.48013 -32.80094,52.42506c-0.00269,0.00269 -0.00538,0.00538 -0.00806,0.00806c-19.72625,19.63756 -41.50844,30.702 -64.74725,32.88962c-0.086,0.00806 -0.16931,0.01344 -0.25263,0.01344zM65.82225,103.68644l-12.298,40.85269c19.23175,-2.73587 37.43956,-12.05344 54.22569,-27.75919zM102.88825,69.75406l11.32244,40.592c12.60169,-13.31656 21.47581,-27.50387 26.98788,-43.16394z" fill="url(#color-7)"></path><path d="M144.88312,67.166c-0.61544,0 -1.21744,-0.20962 -1.70387,-0.61006l-35.78675,-29.35287c-0.688,-0.56438 -1.0535,-1.43244 -0.97288,-2.31931c0.08062,-0.88687 0.59394,-1.677 1.37062,-2.10969l18.90656,-10.52425c0.53481,-0.29831 1.161,-0.40044 1.75763,-0.301c8.52206,1.45662 14.68988,5.26481 18.32875,11.32244c6.31294,10.50275 3.1175,24.58525 0.65037,32.04575c-0.2795,0.84119 -0.95137,1.49156 -1.80331,1.73613c-0.24456,0.07794 -0.49719,0.11288 -0.74713,0.11288zM113.85325,35.55294l29.59475,24.27081c1.64206,-6.39625 3.10137,-16.50394 -1.27388,-23.78169c-2.67138,-4.44512 -7.28044,-7.34494 -13.71162,-8.6215z" fill="url(#color-8)"></path><path d="M49.79938,150.46237c-0.02688,0 -0.05375,0 -0.07525,0c-7.611,-0.21769 -27.48238,-0.78744 -28.22413,-27.49581c-0.01344,-0.47569 0.09944,-0.946 0.32787,-1.35988l8.40381,-15.4155c0.4945,-0.903 1.419,-1.41631 2.48863,-1.40019c1.02931,0.05106 1.94037,0.68263 2.3435,1.62862l17.20806,40.30175c0.36012,0.84119 0.26606,1.81137 -0.25263,2.56925c-0.49987,0.73369 -1.333,1.17175 -2.21987,1.17175zM26.89919,123.53094c0.75519,17.58431 10.94081,20.68031 18.74531,21.35219l-13.34613,-31.25294z" fill="url(#color-9)"></path><path d="M110.54763,58.46388l2.92669,-9.32025l10.28506,8.43606z" fill="url(#color-10)"></path><path d="M79.53656,96.70431l15.64394,-14.57969l5.94744,21.32263z" fill="url(#color-11)"></path><path d="M43.79013,113.14913l8.53281,-1.91887l-3.87,12.85163z" fill="url(#color-12)"></path></g></g></svg>